<svg xmlns="http://www.w3.org/2000/svg" version="1.1" xmlns:xlink="http://www.w3.org/1999/xlink" xmlns:svgjs="http://svgjs.dev/svgjs" width="1000" height="623" viewBox="0 0 1000 623"><g transform="matrix(1,0,0,1,-0.6060606060606233,0.2522267206477409)"><svg viewBox="0 0 396 247" data-background-color="#ffffff" preserveAspectRatio="xMidYMid meet" height="623" width="1000" xmlns="http://www.w3.org/2000/svg" xmlns:xlink="http://www.w3.org/1999/xlink"><g id="tight-bounds" transform="matrix(1,0,0,1,0.2400000000000091,-0.09999999999999432)"><svg viewBox="0 0 395.52 247.2" height="247.2" width="395.52"><g><svg></svg></g><g><svg viewBox="0 0 395.52 247.2" height="247.2" width="395.52"><g transform="matrix(1,0,0,1,39.55199999999999,57.52489411764705)"><svg viewBox="0 0 316.416 132.1502117647059" height="132.1502117647059" width="316.416"><g><svg viewBox="0 0 316.416 132.1502117647059" height="132.1502117647059" width="316.416"><g><svg viewBox="0 0 316.416 132.1502117647059" height="132.1502117647059" width="316.416"><g><svg viewBox="0 0 316.416 132.1502117647059" height="132.1502117647059" width="316.416"><g id="textblocktransform"><svg viewBox="0 0 316.416 132.1502117647059" height="132.1502117647059" width="316.416" id="textblock"><g><svg viewBox="0 0 316.416 132.1502117647059" height="132.1502117647059" width="316.416"><g transform="matrix(1,0,0,1,0,0)"><svg width="316.416" viewBox="1.95 -35 84.99 35.5" height="132.1502117647059" data-palette-color="#231f20"><path d="M19.15 0L15.65 0 10.1-13.65Q9.75-14.55 9.25-16.05 8.75-17.55 8.18-19.35 7.6-21.15 7.1-22.95 6.6-24.75 6.15-26.25 5.7-27.75 5.45-28.65 5.2-29.55 5.2-29.55L5.2-29.55 2.55-32.3 2.85-35 6.35-35 11.85-21.6Q12.25-20.6 12.78-19.05 13.3-17.5 13.85-15.73 14.4-13.95 14.9-12.23 15.4-10.5 15.83-9.05 16.25-7.6 16.5-6.73 16.75-5.85 16.75-5.85L16.75-5.85 19.55-2.7 19.15 0ZM1.95 0L1.95 0 1.95-34.1Q1.95-35 2.85-35L2.85-35 6.5-34.1 5.85-27.4Q6-26.6 6.08-25.4 6.15-24.2 6.23-22.8 6.3-21.4 6.35-19.95 6.4-18.5 6.43-17.15 6.45-15.8 6.48-14.7 6.5-13.6 6.5-12.95L6.5-12.95 6.5-0.9Q6.5-0.45 6.3-0.28 6.1-0.1 5.18-0.05 4.25 0 1.95 0ZM19.15 0L19.15 0 15.45-0.9 16.05-8.55Q15.9-9.4 15.83-10.58 15.75-11.75 15.7-13.08 15.65-14.4 15.6-15.75 15.55-17.1 15.53-18.35 15.5-19.6 15.48-20.65 15.45-21.7 15.45-22.4L15.45-22.4 15.45-34.1Q15.45-34.55 15.65-34.73 15.85-34.9 16.82-34.95 17.8-35 20-35L20-35 20-0.9Q20 0 19.15 0ZM31.05 0.5L31.05 0.5Q29.1 0.5 27.62 0.03 26.15-0.45 25.15-1.8 24.15-3.15 23.67-5.73 23.2-8.3 23.2-12.5L23.2-12.5Q23.2-19.35 25.4-22.43 27.6-25.5 31.5-25.5L31.5-25.5Q34.15-25.5 35.87-24.43 37.6-23.35 38.42-20.55 39.25-17.75 39.25-12.65L39.25-12.65Q39.25-5.6 37.17-2.55 35.1 0.5 31.05 0.5ZM31.2-3.35L31.2-3.35Q32.1-3.35 32.77-4.05 33.45-4.75 33.87-6.75 34.3-8.75 34.3-12.6L34.3-12.6Q34.3-16.45 34-18.4 33.7-20.35 33.05-21 32.4-21.65 31.35-21.65L31.35-21.65Q30.4-21.65 29.67-20.95 28.95-20.25 28.55-18.25 28.15-16.25 28.15-12.45L28.15-12.45Q28.15-9.45 28.35-7.6 28.55-5.75 28.92-4.85 29.3-3.95 29.87-3.65 30.45-3.35 31.2-3.35ZM48.85 0.5L48.85 0.5Q46.7 0.5 45.65-0.38 44.6-1.25 44.27-2.93 43.95-4.6 43.95-6.8L43.95-6.8 43.95-21.1 40.65-21.1Q40.65-22.85 40.7-23.68 40.75-24.5 40.97-24.75 41.2-25 41.65-25L41.65-25 43.95-25 43.95-32.5Q43.95-33.25 44.32-33.55 44.7-33.85 45.67-33.93 46.65-34 48.5-34L48.5-34 48.5-25 53.3-25Q53.3-23.25 53.25-22.43 53.2-21.6 53.02-21.35 52.85-21.1 52.4-21.1L52.4-21.1 48.5-21.1 48.5-6.85Q48.5-5.95 48.57-5.15 48.65-4.35 48.97-3.88 49.3-3.4 50.1-3.4L50.1-3.4Q50.95-3.4 51.57-3.58 52.2-3.75 52.95-4.1L52.95-4.1Q53.05-3.7 53.15-3.15 53.25-2.6 53.25-1.9L53.25-1.9Q53.25-0.9 52.55-0.38 51.85 0.15 50.85 0.33 49.85 0.5 48.85 0.5ZM62.69 0.5L62.69 0.5Q60.94 0.5 59.49 0 58.04-0.5 56.99-1.75 55.94-3 55.34-5.3 54.74-7.6 54.74-11.25L54.74-11.25Q54.74-15.9 55.49-18.73 56.24-21.55 57.49-23 58.74-24.45 60.34-24.98 61.94-25.5 63.59-25.5L63.59-25.5Q66.69-25.5 68.34-23.53 69.99-21.55 69.99-17.45L69.99-17.45Q69.99-15.7 69.84-13.9 69.69-12.1 69.34-10.75L69.34-10.75Q67.69-10.4 65.67-10.23 63.64-10.05 61.77-10 59.89-9.95 58.69-9.95 57.49-9.95 57.49-9.95L57.49-9.95 57.59-13.65Q57.59-13.65 58.44-13.63 59.29-13.6 60.59-13.6 61.89-13.6 63.17-13.73 64.44-13.85 65.29-14.1L65.29-14.1Q65.44-14.75 65.49-15.53 65.54-16.3 65.54-17L65.54-17Q65.49-19.6 64.97-20.55 64.44-21.5 63.04-21.5L63.04-21.5Q62.24-21.5 61.59-21 60.94-20.5 60.47-19.35 59.99-18.2 59.74-16.28 59.49-14.35 59.49-11.45L59.49-11.45Q59.49-9.3 59.72-7.85 59.94-6.4 60.42-5.55 60.89-4.7 61.72-4.33 62.54-3.95 63.69-3.95L63.69-3.95Q65.14-3.95 66.57-4.35 67.99-4.75 69.24-5.45L69.24-5.45Q69.49-4.8 69.57-3.93 69.64-3.05 69.64-2.35L69.64-2.35Q69.64-1.5 68.69-0.85 67.74-0.2 66.17 0.15 64.59 0.5 62.69 0.5ZM78.54 0.5L78.54 0.5Q75.94 0.5 74.22-0.13 72.49-0.75 72.49-2.15L72.49-2.15Q72.49-2.7 72.67-3.38 72.84-4.05 73.29-4.8L73.29-4.8Q74.34-4.2 75.54-3.9 76.74-3.6 78.04-3.6L78.04-3.6Q79.79-3.6 80.72-4.33 81.64-5.05 81.64-6.35L81.64-6.35Q81.64-7.2 81.29-8.08 80.94-8.95 79.89-9.9L79.89-9.9 75.24-14.2Q73.64-15.6 73.07-16.95 72.49-18.3 72.49-19.5L72.49-19.5Q72.49-21.25 73.34-22.6 74.19-23.95 76.02-24.73 77.84-25.5 80.74-25.5L80.74-25.5Q83.34-25.5 84.69-25 86.04-24.5 86.49-23.83 86.94-23.15 86.94-22.6L86.94-22.6Q86.94-21.4 85.99-20.3L85.99-20.3Q84.89-20.95 83.77-21.25 82.64-21.55 81.29-21.55L81.29-21.55Q79.69-21.55 78.79-21 77.89-20.45 77.89-19.4L77.89-19.4Q77.89-18.85 78.22-18.23 78.54-17.6 79.69-16.55L79.69-16.55 84.04-12.75Q85.59-11.15 86.22-9.8 86.84-8.45 86.84-6.55L86.84-6.55Q86.84-3.2 84.62-1.35 82.39 0.5 78.54 0.5Z" opacity="1" transform="matrix(1,0,0,1,0,0)" fill="#231f20" class="undefined-text-0" data-fill-palette-color="primary" id="text-0"></path></svg></g></svg></g></svg></g></svg></g></svg></g></svg></g></svg></g><g mask="url(#06d60e34-6c86-43be-a5e6-bf05379994db)"><g transform="matrix(3.4055555555555554, 0, 0, 3.4055555555555554, 75.16, 1)"><svg xmlns="http://www.w3.org/2000/svg" xmlns:xlink="http://www.w3.org/1999/xlink" version="1.1" x="0" y="0" viewBox="13 14.674 72 72" enable-background="new 0 0 100 100" xml:space="preserve" height="72" width="72" class="icon-none" data-fill-palette-color="accent" id="none"><path d="M82.5 14.674h-66c-1.657 0-3.5 0.843-3.5 2.5v51.518l0.982 0.982H13.5l16.5 16.5v-0.482l0.982 0.982H82.5c1.657 0 2.5-1.843 2.5-3.5v-66C85 15.517 84.157 14.674 82.5 14.674zM27 78.449l-5.775-5.775H27V78.449zM82 83.674H32.225L30 81.449v-9.758c0-1.657-0.36-2.018-2.018-2.018h-9.758L16 67.449V17.674h66V83.674z" fill="#231f20" data-fill-palette-color="accent"></path></svg></g></g></svg></g><defs><mask id="06d60e34-6c86-43be-a5e6-bf05379994db"><rect width="640" height="400" fill="white"></rect><rect width="348.05760000000004" height="194.5451985498353" fill="black" x="145.97119999999998" y="102.72740072508235" id="transform-me" transform="matrix(1,0,0,1,-122.24000000000001,-76.4)"></rect></mask></defs></svg><rect width="395.52" height="247.2" fill="none" stroke="none" visibility="hidden"></rect></g></svg></g></svg>